<svg xmlns="http://www.w3.org/2000/svg" viewBox="0 0 960 560" role="img" aria-labelledby="title desc">
  <title id="title">TRMNL firmware preview</title>
  <desc id="desc">A TRMNL dashboard preview on a reTerminal ePaper display.</desc>
  <defs>
    <linearGradient id="panel" x1="0" x2="1" y1="0" y2="1">
      <stop offset="0" stop-color="#ffffff"/>
      <stop offset="1" stop-color="#e7e7e7"/>
    </linearGradient>
    <filter id="shadow" x="-20%" y="-20%" width="140%" height="140%">
      <feDropShadow dx="0" dy="18" stdDeviation="18" flood-color="#1d1d1f" flood-opacity=".18"/>
    </filter>
  </defs>
  <rect width="960" height="560" rx="30" fill="#3d3d3e"/>
  <rect x="78" y="58" width="804" height="444" rx="28" fill="#f6f6f2" filter="url(#shadow)"/>
  <rect x="118" y="94" width="724" height="372" rx="18" fill="url(#panel)" stroke="#252526" stroke-width="8"/>
  <rect x="156" y="132" width="210" height="42" rx="8" fill="#3d3d3e"/>
  <text x="182" y="161" fill="#ffffff" font-family="Arial, Helvetica, sans-serif" font-size="24" font-weight="700">TRMNL</text>
  <circle cx="784" cy="151" r="22" fill="#f8654b"/>
  <rect x="156" y="210" width="248" height="86" rx="12" fill="#ffffff" stroke="#b8b8b8" stroke-width="3"/>
  <rect x="438" y="210" width="248" height="86" rx="12" fill="#ffffff" stroke="#b8b8b8" stroke-width="3"/>
  <rect x="156" y="326" width="530" height="92" rx="12" fill="#ffffff" stroke="#b8b8b8" stroke-width="3"/>
  <path d="M182 262h64l28-34 38 50 32-26h36" fill="none" stroke="#3d3d3e" stroke-width="8" stroke-linecap="round" stroke-linejoin="round"/>
  <path d="M466 258h66l30-32 34 46 42-62" fill="none" stroke="#f8654b" stroke-width="8" stroke-linecap="round" stroke-linejoin="round"/>
  <rect x="186" y="354" width="180" height="12" rx="6" fill="#3d3d3e"/>
  <rect x="186" y="382" width="420" height="12" rx="6" fill="#a6a6a6"/>
  <rect x="186" y="410" width="312" height="12" rx="6" fill="#a6a6a6"/>
  <rect x="724" y="210" width="68" height="208" rx="34" fill="#3d3d3e"/>
  <circle cx="758" cy="250" r="12" fill="#f8654b"/>
  <circle cx="758" cy="314" r="12" fill="#e7e7e7"/>
  <circle cx="758" cy="378" r="12" fill="#e7e7e7"/>
</svg>
